<svg preserveAspectRatio="none" width="100%" height="100%" overflow="visible" style="display: block;" viewBox="0 0 18.0832 18.0835" fill="none" xmlns="http://www.w3.org/2000/svg">
<g id="Vector">
<path d="M8.48903 0.1961C8.83271 -0.0842604 9.33988 -0.0638869 9.66025 0.256484L17.8269 8.42315C18.1686 8.76486 18.1686 9.31875 17.8269 9.66046C17.4852 10.0022 16.9313 10.0022 16.5896 9.66046L9.0416 2.11244L1.49359 9.66046C1.15188 10.0022 0.59799 10.0022 0.256281 9.66046C-0.0854272 9.31875 -0.0854272 8.76486 0.256281 8.42315L8.42295 0.256484L8.48903 0.1961Z" fill="var(--fill-0, #FBBF24)"/>
<path d="M8.1666 17.2085V0.875136C8.1666 0.391887 8.55835 0.000136296 9.0416 0.000136296C9.52485 0.000136296 9.9166 0.391887 9.9166 0.875136V17.2085C9.9166 17.6917 9.52485 18.0835 9.0416 18.0835C8.55835 18.0835 8.1666 17.6917 8.1666 17.2085Z" fill="var(--fill-0, #FBBF24)"/>
</g>
</svg>
