<svg preserveAspectRatio="none" width="100%" height="100%" overflow="visible" style="display: block;" viewBox="0 0 21.5 21.5" fill="none" xmlns="http://www.w3.org/2000/svg">
<g id="Vector">
<path d="M16 18.75C16 17.3576 15.4465 16.0227 14.4619 15.0381C13.4773 14.0535 12.1424 13.5 10.75 13.5C9.35761 13.5 8.02265 14.0535 7.03809 15.0381C6.05352 16.0227 5.5 17.3576 5.5 18.75C5.5 19.1642 5.16421 19.5 4.75 19.5C4.33579 19.5 4 19.1642 4 18.75C4 16.9598 4.71069 15.2424 5.97656 13.9766C7.24243 12.7107 8.95979 12 10.75 12C12.5402 12 14.2576 12.7107 15.5234 13.9766C16.7893 15.2424 17.5 16.9598 17.5 18.75C17.5 19.1642 17.1642 19.5 16.75 19.5C16.3358 19.5 16 19.1642 16 18.75Z" fill="var(--fill-0, #525252)"/>
<path d="M14 8.75C14 6.95507 12.5449 5.5 10.75 5.5C8.95507 5.5 7.5 6.95507 7.5 8.75C7.5 10.5449 8.95507 12 10.75 12C12.5449 12 14 10.5449 14 8.75ZM15.5 8.75C15.5 11.3734 13.3734 13.5 10.75 13.5C8.12665 13.5 6 11.3734 6 8.75C6 6.12665 8.12665 4 10.75 4C13.3734 4 15.5 6.12665 15.5 8.75Z" fill="var(--fill-0, #525252)"/>
<path d="M20 10.75C20 5.64137 15.8586 1.5 10.75 1.5C5.64137 1.5 1.5 5.64137 1.5 10.75C1.5 15.8586 5.64137 20 10.75 20C15.8586 20 20 15.8586 20 10.75ZM21.5 10.75C21.5 16.6871 16.6871 21.5 10.75 21.5C4.81294 21.5 0 16.6871 0 10.75C0 4.81294 4.81294 0 10.75 0C16.6871 0 21.5 4.81294 21.5 10.75Z" fill="var(--fill-0, #525252)"/>
</g>
</svg>
