<svg preserveAspectRatio="none" width="100%" height="100%" overflow="visible" style="display: block;" viewBox="0 0 21.5 21.5" fill="none" xmlns="http://www.w3.org/2000/svg">
<g id="Vector">
<path d="M20 10.75C20 5.64137 15.8586 1.5 10.75 1.5C5.64137 1.5 1.5 5.64137 1.5 10.75C1.5 15.8586 5.64137 20 10.75 20C15.8586 20 20 15.8586 20 10.75ZM21.5 10.75C21.5 16.6871 16.6871 21.5 10.75 21.5C4.81294 21.5 0 16.6871 0 10.75C0 4.81294 4.81294 0 10.75 0C16.6871 0 21.5 4.81294 21.5 10.75Z" fill="var(--fill-0, #525252)"/>
<path d="M14 10.75C14 8.95507 12.5449 7.5 10.75 7.5C8.95507 7.5 7.5 8.95507 7.5 10.75C7.5 12.5449 8.95507 14 10.75 14C12.5449 14 14 12.5449 14 10.75ZM15.5 10.75C15.5 13.3734 13.3734 15.5 10.75 15.5C8.12665 15.5 6 13.3734 6 10.75C6 8.12665 8.12665 6 10.75 6C13.3734 6 15.5 8.12665 15.5 10.75Z" fill="var(--fill-0, #525252)"/>
<path d="M10.7598 10C11.174 10 11.5098 10.3358 11.5098 10.75C11.5098 11.1642 11.174 11.5 10.7598 11.5H10.75C10.3358 11.5 10 11.1642 10 10.75C10 10.3358 10.3358 10 10.75 10H10.7598Z" fill="var(--fill-0, #525252)"/>
</g>
</svg>
