<svg preserveAspectRatio="none" width="100%" height="100%" overflow="visible" style="display: block;" viewBox="0 0 19.5002 20.509" fill="none" xmlns="http://www.w3.org/2000/svg">
<g id="Vector">
<path d="M8 9.9802C8 9.09322 7.57148 8.19156 6.56543 7.37083C5.83832 6.77756 5.21418 6.02083 4.75195 5.17649C4.29128 6.0239 3.66704 6.78503 2.92871 7.37571C1.92358 8.17981 1.5 9.09723 1.5 9.9802C1.50011 11.7956 2.97393 13.28 4.75 13.28C6.52607 13.28 7.99989 11.7956 8 9.9802ZM9.5 9.9802C9.49989 12.6046 7.3738 14.78 4.75 14.78C2.1262 14.78 0.000105583 12.6046 0 9.9802C0 8.56331 0.696584 7.24066 1.99121 6.20481C3.00408 5.39451 3.75942 4.15867 4.01465 2.88255L4.05176 2.75657C4.1625 2.47334 4.43713 2.28001 4.75 2.28001C5.10738 2.28001 5.41509 2.53217 5.48535 2.88255C5.73958 4.15369 6.50212 5.38337 7.51367 6.20872C8.78762 7.24799 9.5 8.54718 9.5 9.9802Z" fill="var(--fill-0, #525252)"/>
<path d="M11.7531 6.42948e-06C12.1093 0.00147383 12.4155 0.253295 12.4855 0.602545C12.9495 2.92247 14.351 5.16974 16.2189 6.66407C18.3526 8.3711 19.4992 10.4703 19.5002 12.7471L19.4963 13.0332C19.4492 14.4639 19.0054 15.8557 18.2121 17.0518C17.3659 18.3275 16.16 19.3235 14.7472 19.9131C13.3346 20.5026 11.7784 20.659 10.2765 20.3633C8.77466 20.0675 7.39434 19.3321 6.3107 18.251C6.01756 17.9585 6.01643 17.4837 6.30875 17.1904C6.6013 16.8972 7.07607 16.8969 7.3693 17.1895C8.24269 18.0609 9.35604 18.6532 10.5666 18.8916C11.7769 19.1299 13.0307 19.0033 14.1691 18.5283C15.3077 18.0532 16.2801 17.2508 16.9621 16.2227C17.644 15.1945 18.0053 13.9867 18.0002 12.7529V12.75C18.0002 11.028 17.1466 9.32815 15.2814 7.83594C13.774 6.63005 12.5353 4.99955 11.7482 3.20118C11.5181 3.72775 11.2515 4.23859 10.9455 4.72755C10.7257 5.07861 10.2634 5.18546 9.91227 4.96583C9.56115 4.74607 9.45423 4.28276 9.67398 3.93165C10.3147 2.90796 10.7692 1.77889 11.0158 0.596686L11.0539 0.47071C11.1665 0.189442 11.4414 -0.00127614 11.7531 6.42948e-06Z" fill="var(--fill-0, #525252)"/>
</g>
</svg>
