<svg preserveAspectRatio="none" width="100%" height="100%" overflow="visible" style="display: block;" viewBox="0 0 9.75 9.75" fill="none" xmlns="http://www.w3.org/2000/svg">
<g id="Vector">
<path d="M6 7.875C6 7.25368 5.49632 6.75 4.875 6.75C4.25368 6.75 3.75 7.25368 3.75 7.875C3.75 8.49632 4.25368 9 4.875 9C5.49632 9 6 8.49632 6 7.875ZM6.75 7.875C6.75 8.91053 5.91053 9.75 4.875 9.75C3.83947 9.75 3 8.91053 3 7.875C3 6.83947 3.83947 6 4.875 6C5.91053 6 6.75 6.83947 6.75 7.875Z" fill="var(--fill-0, #0A0A0A)"/>
<path d="M3 1.875C3 1.25368 2.49632 0.75 1.875 0.75C1.25368 0.75 0.75 1.25368 0.75 1.875C0.75 2.49632 1.25368 3 1.875 3C2.49632 3 3 2.49632 3 1.875ZM3.75 1.875C3.75 2.91053 2.91053 3.75 1.875 3.75C0.839466 3.75 0 2.91053 0 1.875C0 0.839466 0.839466 0 1.875 0C2.91053 0 3.75 0.839466 3.75 1.875Z" fill="var(--fill-0, #0A0A0A)"/>
<path d="M9 1.875C9 1.25368 8.49632 0.75 7.875 0.75C7.25368 0.75 6.75 1.25368 6.75 1.875C6.75 2.49632 7.25368 3 7.875 3C8.49632 3 9 2.49632 9 1.875ZM9.75 1.875C9.75 2.91053 8.91053 3.75 7.875 3.75C6.83947 3.75 6 2.91053 6 1.875C6 0.839466 6.83947 0 7.875 0C8.91053 0 9.75 0.839466 9.75 1.875Z" fill="var(--fill-0, #0A0A0A)"/>
<path d="M1.5 4.375V3.375C1.5 3.16789 1.66789 3 1.875 3C2.08211 3 2.25 3.16789 2.25 3.375V4.375C2.25 4.43978 2.27012 4.46446 2.27783 4.47217C2.28554 4.47988 2.31022 4.5 2.375 4.5H7.375C7.43978 4.5 7.46446 4.47988 7.47217 4.47217C7.47988 4.46446 7.5 4.43978 7.5 4.375V3.375C7.5 3.16789 7.66789 3 7.875 3C8.08211 3 8.25 3.16789 8.25 3.375V4.375C8.25 4.61022 8.16973 4.83515 8.00244 5.00244C7.83515 5.16973 7.61022 5.25 7.375 5.25H2.375C2.13978 5.25 1.91485 5.16973 1.74756 5.00244C1.58027 4.83515 1.5 4.61022 1.5 4.375Z" fill="var(--fill-0, #0A0A0A)"/>
<path d="M4.5 6.375V4.875C4.5 4.66789 4.66789 4.5 4.875 4.5C5.08211 4.5 5.25 4.66789 5.25 4.875V6.375C5.25 6.58211 5.08211 6.75 4.875 6.75C4.66789 6.75 4.5 6.58211 4.5 6.375Z" fill="var(--fill-0, #0A0A0A)"/>
</g>
</svg>
