<svg preserveAspectRatio="none" width="100%" height="100%" overflow="visible" style="display: block;" viewBox="0 0 9.75 10.25" fill="none" xmlns="http://www.w3.org/2000/svg">
<g id="Vector">
<path d="M9 2.875V0.75H6.875C6.66789 0.75 6.5 0.582107 6.5 0.375C6.5 0.167893 6.66789 0 6.875 0H9.375C9.58211 0 9.75 0.167893 9.75 0.375V2.875C9.75 3.08211 9.58211 3.25 9.375 3.25C9.16789 3.25 9 3.08211 9 2.875Z" fill="var(--fill-0, #0A0A0A)"/>
<path d="M0 2.875V0.375C0 0.167893 0.167893 0 0.375 0H2.875C3.08211 0 3.25 0.167893 3.25 0.375C3.25 0.582107 3.08211 0.75 2.875 0.75H0.75V2.875C0.75 3.08211 0.582107 3.25 0.375 3.25C0.167893 3.25 0 3.08211 0 2.875Z" fill="var(--fill-0, #0A0A0A)"/>
<path d="M4.5 9.875V5.72119C4.50232 5.50481 4.46164 5.28971 4.37988 5.08936C4.30832 4.91402 4.20644 4.75286 4.07959 4.61279L4.02393 4.5542L0.109863 0.640137C-0.0365833 0.49369 -0.0365833 0.25631 0.109863 0.109863C0.25631 -0.0365833 0.49369 -0.0365833 0.640137 0.109863L4.5542 4.02393C4.77783 4.24749 4.95474 4.51338 5.07422 4.80615C5.19322 5.09776 5.25286 5.41018 5.25 5.7251V9.875C5.25 10.0821 5.08211 10.25 4.875 10.25C4.66789 10.25 4.5 10.0821 4.5 9.875Z" fill="var(--fill-0, #0A0A0A)"/>
<path d="M9.10986 0.109863C9.25631 -0.0365833 9.49369 -0.0365833 9.64014 0.109863C9.78658 0.25631 9.78658 0.49369 9.64014 0.640137L6.64014 3.64014C6.49369 3.78658 6.25631 3.78658 6.10986 3.64014C5.96342 3.49369 5.96342 3.25631 6.10986 3.10986L9.10986 0.109863Z" fill="var(--fill-0, #0A0A0A)"/>
</g>
</svg>
