<svg preserveAspectRatio="none" width="100%" height="100%" overflow="visible" style="display: block;" viewBox="0 0 21.5 21.5" fill="none" xmlns="http://www.w3.org/2000/svg">
<g id="Vector">
<path d="M3.75 10C4.16421 10 4.5 10.3358 4.5 10.75C4.5 11.1642 4.16421 11.5 3.75 11.5H0.75C0.335786 11.5 0 11.1642 0 10.75C0 10.3358 0.335786 10 0.75 10H3.75Z" fill="var(--fill-0, #FAFAFA)"/>
<path d="M20.75 10C21.1642 10 21.5 10.3358 21.5 10.75C21.5 11.1642 21.1642 11.5 20.75 11.5H17.75C17.3358 11.5 17 11.1642 17 10.75C17 10.3358 17.3358 10 17.75 10H20.75Z" fill="var(--fill-0, #FAFAFA)"/>
<path d="M10 3.75V0.75C10 0.335786 10.3358 0 10.75 0C11.1642 0 11.5 0.335786 11.5 0.75V3.75C11.5 4.16421 11.1642 4.5 10.75 4.5C10.3358 4.5 10 4.16421 10 3.75Z" fill="var(--fill-0, #FAFAFA)"/>
<path d="M10 20.75V17.75C10 17.3358 10.3358 17 10.75 17C11.1642 17 11.5 17.3358 11.5 17.75V20.75C11.5 21.1642 11.1642 21.5 10.75 21.5C10.3358 21.5 10 21.1642 10 20.75Z" fill="var(--fill-0, #FAFAFA)"/>
<path d="M17 10.75C17 7.29822 14.2018 4.5 10.75 4.5C7.29822 4.5 4.5 7.29822 4.5 10.75C4.5 14.2018 7.29822 17 10.75 17C14.2018 17 17 14.2018 17 10.75ZM18.5 10.75C18.5 15.0302 15.0302 18.5 10.75 18.5C6.46979 18.5 3 15.0302 3 10.75C3 6.46979 6.46979 3 10.75 3C15.0302 3 18.5 6.46979 18.5 10.75Z" fill="var(--fill-0, #FAFAFA)"/>
<path d="M13 10.75C13 9.50736 11.9926 8.5 10.75 8.5C9.50736 8.5 8.5 9.50736 8.5 10.75C8.5 11.9926 9.50736 13 10.75 13C11.9926 13 13 11.9926 13 10.75ZM14.5 10.75C14.5 12.8211 12.8211 14.5 10.75 14.5C8.67893 14.5 7 12.8211 7 10.75C7 8.67893 8.67893 7 10.75 7C12.8211 7 14.5 8.67893 14.5 10.75Z" fill="var(--fill-0, #FAFAFA)"/>
</g>
</svg>
