<svg preserveAspectRatio="none" width="100%" height="100%" overflow="visible" style="display: block;" viewBox="0 0 19.5 19.5" fill="none" xmlns="http://www.w3.org/2000/svg">
<g id="Vector">
<path d="M0 5.75V2.75C0 2.02065 0.289939 1.32139 0.805664 0.805664C1.32139 0.289939 2.02065 0 2.75 0H5.75C6.16421 0 6.5 0.335786 6.5 0.75C6.5 1.16421 6.16421 1.5 5.75 1.5H2.75C2.41848 1.5 2.10063 1.63179 1.86621 1.86621C1.63179 2.10063 1.5 2.41848 1.5 2.75V5.75C1.5 6.16421 1.16421 6.5 0.75 6.5C0.335786 6.5 0 6.16421 0 5.75Z" fill="var(--fill-0, #525252)"/>
<path d="M18 5.75V2.75C18 2.41848 17.8682 2.10063 17.6338 1.86621C17.3994 1.63179 17.0815 1.5 16.75 1.5H13.75C13.3358 1.5 13 1.16421 13 0.75C13 0.335786 13.3358 0 13.75 0H16.75C17.4793 0 18.1786 0.289939 18.6943 0.805664C19.2101 1.32139 19.5 2.02065 19.5 2.75V5.75C19.5 6.16421 19.1642 6.5 18.75 6.5C18.3358 6.5 18 6.16421 18 5.75Z" fill="var(--fill-0, #525252)"/>
<path d="M0 16.75V13.75C0 13.3358 0.335786 13 0.75 13C1.16421 13 1.5 13.3358 1.5 13.75V16.75C1.5 17.0815 1.63179 17.3994 1.86621 17.6338C2.10063 17.8682 2.41848 18 2.75 18H5.75C6.16421 18 6.5 18.3358 6.5 18.75C6.5 19.1642 6.16421 19.5 5.75 19.5H2.75C2.02065 19.5 1.32139 19.2101 0.805664 18.6943C0.289939 18.1786 0 17.4793 0 16.75Z" fill="var(--fill-0, #525252)"/>
<path d="M18 16.75V13.75C18 13.3358 18.3358 13 18.75 13C19.1642 13 19.5 13.3358 19.5 13.75V16.75C19.5 17.4793 19.2101 18.1786 18.6943 18.6943C18.1786 19.2101 17.4793 19.5 16.75 19.5H13.75C13.3358 19.5 13 19.1642 13 18.75C13 18.3358 13.3358 18 13.75 18H16.75C17.0815 18 17.3994 17.8682 17.6338 17.6338C17.8682 17.3994 18 17.0815 18 16.75Z" fill="var(--fill-0, #525252)"/>
</g>
</svg>
