<svg preserveAspectRatio="none" width="100%" height="100%" overflow="visible" style="display: block;" viewBox="0 0 9.75 9.75" fill="none" xmlns="http://www.w3.org/2000/svg">
<g id="Vector">
<path d="M3.5 0.875C3.5 0.805964 3.44404 0.75 3.375 0.75H0.875C0.805964 0.75 0.75 0.805964 0.75 0.875V4.375C0.75 4.44404 0.805964 4.5 0.875 4.5H3.375C3.44404 4.5 3.5 4.44404 3.5 4.375V0.875ZM4.25 4.375C4.25 4.85825 3.85825 5.25 3.375 5.25H0.875C0.391751 5.25 0 4.85825 0 4.375V0.875C0 0.391751 0.391751 0 0.875 0H3.375C3.85825 0 4.25 0.391751 4.25 0.875V4.375Z" fill="var(--fill-0, #0A0A0A)"/>
<path d="M9 0.875C9 0.805964 8.94404 0.75 8.875 0.75H6.375C6.30596 0.75 6.25 0.805964 6.25 0.875V2.375C6.25 2.44404 6.30596 2.5 6.375 2.5H8.875C8.94404 2.5 9 2.44404 9 2.375V0.875ZM9.75 2.375C9.75 2.85825 9.35825 3.25 8.875 3.25H6.375C5.89175 3.25 5.5 2.85825 5.5 2.375V0.875C5.5 0.391751 5.89175 0 6.375 0H8.875C9.35825 0 9.75 0.391751 9.75 0.875V2.375Z" fill="var(--fill-0, #0A0A0A)"/>
<path d="M9 5.375C9 5.30596 8.94404 5.25 8.875 5.25H6.375C6.30596 5.25 6.25 5.30596 6.25 5.375V8.875C6.25 8.94404 6.30596 9 6.375 9H8.875C8.94404 9 9 8.94404 9 8.875V5.375ZM9.75 8.875C9.75 9.35825 9.35825 9.75 8.875 9.75H6.375C5.89175 9.75 5.5 9.35825 5.5 8.875V5.375C5.5 4.89175 5.89175 4.5 6.375 4.5H8.875C9.35825 4.5 9.75 4.89175 9.75 5.375V8.875Z" fill="var(--fill-0, #0A0A0A)"/>
<path d="M3.5 7.375C3.5 7.30596 3.44404 7.25 3.375 7.25H0.875C0.805964 7.25 0.75 7.30596 0.75 7.375V8.875C0.75 8.94404 0.805964 9 0.875 9H3.375C3.44404 9 3.5 8.94404 3.5 8.875V7.375ZM4.25 8.875C4.25 9.35825 3.85825 9.75 3.375 9.75H0.875C0.391751 9.75 0 9.35825 0 8.875V7.375C0 6.89175 0.391751 6.5 0.875 6.5H3.375C3.85825 6.5 4.25 6.89175 4.25 7.375V8.875Z" fill="var(--fill-0, #0A0A0A)"/>
</g>
</svg>
