<svg preserveAspectRatio="none" width="100%" height="100%" overflow="visible" style="display: block;" viewBox="0 0 13.5012 17.5" fill="none" xmlns="http://www.w3.org/2000/svg">
<g id="Vector">
<path d="M7.00058 1.75C7.00058 1.61193 6.88865 1.5 6.75058 1.5C6.61251 1.5 6.50058 1.61193 6.50058 1.75C6.50058 1.88807 6.61251 2 6.75058 2C6.88865 2 7.00058 1.88807 7.00058 1.75ZM8.50058 1.75C8.50058 2.7165 7.71708 3.5 6.75058 3.5C5.78408 3.5 5.00058 2.7165 5.00058 1.75C5.00058 0.783502 5.78408 0 6.75058 0C7.71708 0 8.50058 0.783502 8.50058 1.75Z" fill="var(--fill-0, #525252)"/>
<path d="M6.75058 10C7.03466 10 7.29443 10.161 7.42148 10.415L10.4215 16.415C10.6064 16.7854 10.4559 17.2357 10.0855 17.4209C9.71513 17.6058 9.26486 17.4553 9.07968 17.085L6.75058 12.4268L4.42148 17.085C4.2363 17.4553 3.78603 17.6058 3.41562 17.4209C3.04526 17.2357 2.89474 16.7854 3.07968 16.415L6.07968 10.415C6.20672 10.161 6.4665 10 6.75058 10Z" fill="var(--fill-0, #525252)"/>
<path d="M12.5133 4.03809C12.9062 3.9071 13.3315 4.11974 13.4625 4.5127C13.5935 4.90565 13.3808 5.33093 12.9879 5.46191L6.98788 7.46191C6.83393 7.51323 6.66722 7.51323 6.51327 7.46191L0.513273 5.46191C0.120315 5.33093 -0.0923227 4.90565 0.0386631 4.5127C0.169649 4.11974 0.594924 3.9071 0.987882 4.03809L6.75058 5.95898L12.5133 4.03809Z" fill="var(--fill-0, #525252)"/>
<path d="M6.00058 10.75V6.75C6.00058 6.33579 6.33636 6 6.75058 6C7.16479 6 7.50058 6.33579 7.50058 6.75V10.75C7.50058 11.1642 7.16479 11.5 6.75058 11.5C6.33636 11.5 6.00058 11.1642 6.00058 10.75Z" fill="var(--fill-0, #525252)"/>
</g>
</svg>
