<svg preserveAspectRatio="none" width="100%" height="100%" overflow="visible" style="display: block;" viewBox="0 0 14.334 14.334" fill="none" xmlns="http://www.w3.org/2000/svg">
<g id="Vector">
<path d="M7.23372 0.00260417C7.36902 0.0136346 7.49948 0.0578751 7.61393 0.130859L7.66992 0.169271L7.72201 0.212891C7.82297 0.303374 7.90022 0.417111 7.94727 0.544271L7.96875 0.608724L7.97135 0.61849L9.02539 4.70833L9.0599 4.81445C9.10166 4.91716 9.16391 5.01092 9.24284 5.08984C9.34808 5.19505 9.47962 5.27009 9.6237 5.30729L13.7135 6.36133L13.722 6.36328C13.8758 6.40571 14.0137 6.49147 14.1198 6.60938L14.1634 6.66211L14.2025 6.7181C14.2878 6.85166 14.334 7.00722 14.334 7.16667C14.334 7.34907 14.2739 7.52676 14.1634 7.67188C14.0529 7.81692 13.8978 7.92155 13.722 7.97005L13.7135 7.97266L9.6237 9.02604C9.47954 9.06325 9.34811 9.13887 9.24284 9.24414C9.1376 9.3494 9.06259 9.48088 9.02539 9.625L7.9707 13.7148C7.96988 13.718 7.96898 13.7214 7.9681 13.7246C7.91912 13.8996 7.81401 14.0542 7.66927 14.1641C7.52439 14.274 7.34722 14.334 7.16536 14.334C6.9835 14.334 6.80635 14.274 6.66146 14.1641C6.51669 14.0542 6.41162 13.8997 6.36263 13.7246C6.36174 13.7214 6.36086 13.7181 6.36003 13.7148L5.30599 9.625C5.26879 9.48089 5.19376 9.3494 5.08854 9.24414C4.98329 9.13889 4.85181 9.06326 4.70768 9.02604L0.617188 7.97135C0.613396 7.97037 0.609236 7.96982 0.605469 7.96875C0.431153 7.91922 0.277895 7.81384 0.16862 7.66927C0.0592919 7.52459 0 7.34801 0 7.16667C3.60642e-05 6.98543 0.0593814 6.80933 0.16862 6.66471L0.211589 6.61198C0.31652 6.49439 0.452992 6.40858 0.605469 6.36523L0.617188 6.36198L4.70768 5.30664C4.85175 5.26946 4.98329 5.19437 5.08854 5.08919C5.19381 4.98399 5.26872 4.85242 5.30599 4.70833L6.36068 0.61849C6.36152 0.615229 6.36237 0.611967 6.36328 0.608724C6.41228 0.433624 6.51726 0.279179 6.66211 0.169271L6.7181 0.130859C6.85154 0.0457758 7.00682 0 7.16602 0L7.23372 0.00260417ZM6.27474 4.95833L6.27409 4.95898C6.1921 5.27578 6.02699 5.56487 5.79557 5.79622C5.56392 6.02771 5.27415 6.19298 4.95703 6.27474L1.50065 7.16602L4.95703 8.05794C5.27426 8.13978 5.56391 8.30545 5.79557 8.53711C6.02714 8.76871 6.1929 9.05789 6.27474 9.375L7.16536 12.8314L8.05664 9.375C8.13849 9.05787 8.30423 8.76871 8.53581 8.53711C8.76747 8.30545 9.05712 8.13978 9.37435 8.05794L12.832 7.16667L9.37435 6.27539C9.05716 6.19356 8.76745 6.02848 8.53581 5.79688C8.33312 5.59419 8.18079 5.34724 8.09115 5.07617L8.05664 4.95833L7.16536 1.50195L6.27474 4.95833Z" fill="var(--fill-0, #0A0A0A)"/>
<path d="M11.999 3.8335V1.16683C11.999 0.89069 12.2228 0.666833 12.499 0.666833C12.7751 0.666833 12.999 0.89069 12.999 1.16683V3.8335C12.999 4.10964 12.7751 4.3335 12.499 4.3335C12.2228 4.3335 11.999 4.10964 11.999 3.8335Z" fill="var(--fill-0, #0A0A0A)"/>
<path d="M13.8323 2.00017C14.1085 2.00017 14.3323 2.22402 14.3323 2.50017C14.3323 2.77631 14.1085 3.00017 13.8323 3.00017H11.1657C10.8895 3.00017 10.6657 2.77631 10.6657 2.50017C10.6657 2.22402 10.8895 2.00017 11.1657 2.00017H13.8323Z" fill="var(--fill-0, #0A0A0A)"/>
<path d="M1.33232 11.8335V10.5002C1.33232 10.224 1.55617 10.0002 1.83232 10.0002C2.10846 10.0002 2.33232 10.224 2.33232 10.5002V11.8335C2.33232 12.1096 2.10846 12.3335 1.83232 12.3335C1.55617 12.3335 1.33232 12.1096 1.33232 11.8335Z" fill="var(--fill-0, #0A0A0A)"/>
<path d="M2.49898 10.6668C2.77513 10.6668 2.99898 10.8907 2.99898 11.1668C2.99898 11.443 2.77513 11.6668 2.49898 11.6668H1.16565C0.889508 11.6668 0.66565 11.443 0.66565 11.1668C0.66565 10.8907 0.889508 10.6668 1.16565 10.6668H2.49898Z" fill="var(--fill-0, #0A0A0A)"/>
</g>
</svg>
