<svg preserveAspectRatio="none" width="100%" height="100%" overflow="visible" style="display: block;" viewBox="0 0 21.501 21.501" fill="none" xmlns="http://www.w3.org/2000/svg">
<path id="Vector" d="M10.8506 0.00390625C11.0535 0.0204519 11.2492 0.0868127 11.4209 0.196289L11.5049 0.253906L11.583 0.319336C11.7345 0.455061 11.8503 0.625666 11.9209 0.816406L11.9531 0.913086L11.957 0.927734L13.5381 7.0625L13.5898 7.22168C13.6525 7.37573 13.7459 7.51638 13.8643 7.63477C14.0221 7.79257 14.2194 7.90513 14.4355 7.96094L20.5703 9.54199L20.583 9.54492C20.8137 9.60857 21.0205 9.73721 21.1797 9.91406L21.2451 9.99316L21.3037 10.0771C21.4318 10.2775 21.5009 10.5108 21.501 10.75C21.501 11.0236 21.4109 11.2901 21.2451 11.5078C21.0794 11.7254 20.8467 11.8823 20.583 11.9551L20.5703 11.959L14.4355 13.5391C14.2193 13.5949 14.0222 13.7083 13.8643 13.8662C13.7064 14.0241 13.5939 14.2213 13.5381 14.4375L11.9561 20.5723C11.9548 20.577 11.9535 20.5822 11.9521 20.5869C11.8787 20.8494 11.721 21.0812 11.5039 21.2461C11.2866 21.4109 11.0208 21.501 10.748 21.501C10.4752 21.501 10.2095 21.411 9.99219 21.2461C9.77503 21.0812 9.61743 20.8495 9.54395 20.5869C9.5426 20.5821 9.54129 20.5771 9.54004 20.5723L7.95898 14.4375C7.90319 14.2213 7.79065 14.0241 7.63281 13.8662C7.47493 13.7083 7.27771 13.5949 7.06152 13.5391L0.925781 11.957C0.920094 11.9556 0.913854 11.9547 0.908203 11.9531C0.646729 11.8788 0.416843 11.7208 0.25293 11.5039C0.0889379 11.2869 0 11.022 0 10.75C5.40962e-05 10.4782 0.0890721 10.214 0.25293 9.99707L0.317383 9.91797C0.47478 9.74159 0.679489 9.61287 0.908203 9.54785L0.925781 9.54297L7.06152 7.95996C7.27763 7.90419 7.47494 7.79155 7.63281 7.63379C7.79072 7.47598 7.90308 7.27863 7.95898 7.0625L9.54102 0.927734C9.54228 0.922843 9.54356 0.917951 9.54492 0.913086C9.61843 0.650436 9.77589 0.418769 9.99316 0.253906L10.0771 0.196289C10.2773 0.0686636 10.5102 0 10.749 0L10.8506 0.00390625ZM9.41211 7.4375L9.41113 7.43848C9.28816 7.91367 9.04049 8.3473 8.69336 8.69434C8.34588 9.04157 7.91123 9.28947 7.43555 9.41211L2.25098 10.749L7.43555 12.0869C7.9114 12.2097 8.34587 12.4582 8.69336 12.8057C9.0407 13.1531 9.28934 13.5868 9.41211 14.0625L10.748 19.2471L12.085 14.0625C12.2077 13.5868 12.4563 13.1531 12.8037 12.8057C13.1512 12.4582 13.5857 12.2097 14.0615 12.0869L19.248 10.75L14.0615 9.41309C13.5857 9.29035 13.1512 9.04273 12.8037 8.69531C12.4997 8.39129 12.2712 8.02087 12.1367 7.61426L12.085 7.4375L10.748 2.25293L9.41211 7.4375Z" fill="var(--fill-0, #FAFAFA)"/>
</svg>
