<svg preserveAspectRatio="none" width="100%" height="100%" overflow="visible" style="display: block;" viewBox="0 0 21.5004 17.4996" fill="none" xmlns="http://www.w3.org/2000/svg">
<g id="Vector">
<path d="M12.75 11.9998C13.1856 11.9998 13.6151 12.1031 14.0029 12.3016C14.3906 12.5 14.7257 12.7882 14.9805 13.1414C15.2352 13.4948 15.403 13.9041 15.4688 14.3348C15.5344 14.7654 15.4961 15.2057 15.3584 15.619C15.2206 16.0323 14.9868 16.4075 14.6758 16.7127C14.3648 17.0178 13.9861 17.2449 13.5703 17.3748C13.1545 17.5047 12.7135 17.5336 12.2842 17.4598C11.8547 17.3859 11.4482 17.2115 11.0996 16.95C10.7684 16.7015 10.7018 16.2315 10.9502 15.9002C11.1987 15.5688 11.6686 15.5013 12 15.7498C12.1584 15.8686 12.3429 15.9477 12.5381 15.9813C12.7333 16.0148 12.934 16.0022 13.123 15.9432C13.3118 15.8842 13.4838 15.7809 13.625 15.6424C13.7663 15.5038 13.8729 15.3331 13.9355 15.1453C13.9982 14.9574 14.0152 14.7571 13.9854 14.5613C13.9555 14.3656 13.8794 14.18 13.7637 14.0194C13.6479 13.8587 13.4956 13.7278 13.3193 13.6375C13.143 13.5473 12.948 13.4998 12.75 13.4998H0.75C0.335786 13.4998 0 13.164 0 12.7498C0 12.3356 0.335786 11.9998 0.75 11.9998H12.75Z" fill="var(--fill-0, #525252)"/>
<path d="M18.542 3.01252C19.0937 3.06228 19.6234 3.25313 20.0811 3.56525C20.5387 3.87738 20.9095 4.30125 21.1572 4.7967C21.4048 5.29209 21.522 5.84303 21.4971 6.39631C21.4721 6.94959 21.3058 7.48767 21.0146 7.95881C20.7234 8.42988 20.3167 8.81897 19.833 9.08869C19.3491 9.35846 18.804 9.49982 18.25 9.49982H0.75C0.335786 9.49982 0 9.16403 0 8.74982C2.57704e-07 8.33561 0.335787 7.99982 0.75 7.99982H18.25C18.5483 7.99982 18.842 7.9234 19.1025 7.77814C19.3629 7.6329 19.5815 7.42334 19.7383 7.16974C19.895 6.91612 19.9846 6.62676 19.998 6.32892C20.0114 6.03107 19.9487 5.7343 19.8154 5.46759C19.6821 5.20094 19.4826 4.97255 19.2363 4.80451C18.9899 4.63645 18.7043 4.53345 18.4072 4.50666C18.1101 4.47987 17.8106 4.52991 17.5381 4.65119C17.2657 4.77247 17.0285 4.96151 16.8496 5.20002C16.601 5.53112 16.1311 5.59788 15.7998 5.34943C15.4687 5.10084 15.4019 4.63089 15.6504 4.29963C15.9828 3.85659 16.4227 3.50527 16.9287 3.28009C17.4348 3.05493 17.9903 2.96277 18.542 3.01252Z" fill="var(--fill-0, #525252)"/>
<path d="M9.28418 0.0398604C9.7135 -0.0339359 10.1545 -0.005066 10.5703 0.124821C10.9861 0.254746 11.3648 0.481876 11.6758 0.786931C11.9868 1.09211 12.2206 1.4673 12.3584 1.88068C12.4961 2.29398 12.5344 2.7342 12.4688 3.16486C12.403 3.59552 12.2352 4.0048 11.9805 4.35822C11.7257 4.71148 11.3906 4.9996 11.0029 5.19806C10.6151 5.39652 10.1856 5.49982 9.75 5.49982H0.75C0.335786 5.49982 0 5.16403 0 4.74982C0 4.33561 0.335786 3.99982 0.75 3.99982H9.75C9.94804 3.99982 10.143 3.95236 10.3193 3.86213C10.4956 3.77187 10.6479 3.64097 10.7637 3.48029C10.8794 3.31964 10.9555 3.13405 10.9854 2.9383C11.0152 2.7425 10.9982 2.54221 10.9355 2.35431C10.8729 2.16653 10.7663 1.99589 10.625 1.85724C10.4838 1.71879 10.3118 1.61547 10.123 1.55646C9.93399 1.49741 9.73328 1.4848 9.53809 1.51838C9.34291 1.55196 9.15843 1.631 9 1.74982C8.66863 1.99835 8.19872 1.9308 7.9502 1.59943C7.70185 1.26812 7.76843 0.798146 8.09961 0.549626C8.4482 0.28818 8.85475 0.113737 9.28418 0.0398604Z" fill="var(--fill-0, #525252)"/>
</g>
</svg>
