<svg preserveAspectRatio="none" width="100%" height="100%" overflow="visible" style="display: block;" viewBox="0 0 12.9999 12.9999" fill="none" xmlns="http://www.w3.org/2000/svg">
<g id="Vector">
<path d="M9.25315 9.25315C9.44841 9.05789 9.76492 9.05789 9.96018 9.25315L12.8534 12.1464C13.0487 12.3416 13.0487 12.6581 12.8534 12.8534C12.6581 13.0487 12.3416 13.0487 12.1464 12.8534L9.25315 9.96018C9.05789 9.76492 9.05789 9.44841 9.25315 9.25315Z" fill="var(--fill-0, #737373)"/>
<path d="M10.6667 5.83333C10.6667 3.16396 8.50271 1 5.83333 1C3.16396 1 1 3.16396 1 5.83333C1 8.50271 3.16396 10.6667 5.83333 10.6667C8.50271 10.6667 10.6667 8.50271 10.6667 5.83333ZM11.6667 5.83333C11.6667 9.05499 9.05499 11.6667 5.83333 11.6667C2.61167 11.6667 0 9.05499 0 5.83333C0 2.61167 2.61167 0 5.83333 0C9.05499 0 11.6667 2.61167 11.6667 5.83333Z" fill="var(--fill-0, #737373)"/>
</g>
</svg>
